<?xml version="1.0" encoding="UTF-8"?>
<svg width="256px" height="256px" viewBox="0 0 256 256" version="1.1" xmlns="http://www.w3.org/2000/svg" xmlns:xlink="http://www.w3.org/1999/xlink">
    <!-- Generator: Sketch 42 (36781) - http://www.bohemiancoding.com/sketch -->
    <title>background</title>
    <desc>Created with Sketch.</desc>
    <defs></defs>
    <g id="Page-1" stroke="none" stroke-width="1" fill="none" fill-rule="evenodd">
        <g id="background">
            <rect id="rect4878" fill-opacity="0.191915761" fill="#62ACF0" x="0.555314534" y="0.386706949" width="255.30308" height="255.238187"></rect>
            <path d="M2.80127375,85.0075868 C2.75866725,85.035043 2.70513492,85.14742 2.63641475,85.3338901 C2.53998161,85.5899675 1.86375011,87.9409137 1.00517831,90.9531288 L1.00517831,116.584452 C4.48894403,119.686422 9.18829328,122.270591 15.8251349,124.729661 C18.8374386,125.845774 28.573213,128.464476 33.300328,129.43047 C41.8904885,131.186004 52.2190612,132.753946 65.5085709,134.312645 C71.5117987,135.016761 78.6870178,135.763802 102.028831,138.131377 C130.907964,141.060759 146.381803,142.980682 162.941282,145.68415 C204.387183,152.451908 234.360285,162.462978 256.311868,176.874386 L256.311868,170.385056 C242.301005,164.465733 228.6933,159.827957 212.303191,155.339836 C198.247625,151.491019 188.457985,149.224065 173.872649,146.433588 C155.457031,142.90976 142.455729,141.01273 100.840458,135.774784 C77.6552434,132.85681 68.4739505,131.483497 56.3458811,129.14044 C49.7848399,127.873008 35.9597293,124.086567 31.8773345,122.433395 C20.1962933,117.703582 13.3081718,112.785056 8.58022386,105.793008 C4.93069675,100.396126 3.13425423,94.3062648 2.97487896,86.8203916 C2.94927896,85.6179651 2.91559913,85.0819119 2.83605033,85.0077028 C2.82402777,84.9964883 2.81555922,84.9984219 2.80134317,85.0077028 L2.80127375,85.0075868 Z M1.00516443,117.031563 L1.00516443,132.366813 C1.62425683,132.534644 2.16013536,132.666279 2.47152798,132.741416 C16.6523176,136.163116 31.1535236,138.189731 51.5113544,139.581489 C57.4024087,139.984128 73.1905562,140.729119 85.2550421,141.16459 C94.2347557,141.48865 109.312378,142.105641 115.33643,142.409283 C137.060057,143.50436 156.80732,145.784732 173.791615,149.152679 C180.781914,150.53883 197.363328,155.089404 203.101116,157.200824 C220.169819,163.482105 233.760031,170.738661 246.737732,180.499918 C249.835832,182.830291 253.12607,185.559978 256.3083,188.39106 L256.3083,177.236885 C242.37296,168.082371 225.188474,160.707483 203.692248,154.771531 C188.57853,150.59819 171.328517,147.135616 151.587085,144.270117 C137.697558,142.253982 125.846869,140.898729 91.6991896,137.418057 C62.4896451,134.440877 52.6050464,133.227314 40.9045692,131.20677 C21.7892547,127.905569 9.69033926,123.811773 2.37962343,118.15541 C1.8782577,117.767427 1.42573189,117.396575 1,117.031524 L1.00516443,117.031563 Z M1.00516443,132.656844 L1.00516443,150.469339 C6.26260477,150.999824 11.9159844,151.374697 17.7948217,151.593225 C31.6998976,152.110021 44.7009215,151.759935 68.8393336,150.227647 C98.8929562,148.320099 103.19942,148.064718 109.688271,147.786598 C136.802891,146.624699 156.315256,147.57244 174.088097,150.892319 C181.295525,152.238601 192.788869,155.431485 199.007837,157.829068 C222.118362,166.738796 240.700852,181.104186 256.310744,202.19209 L256.310744,188.875062 C238.695889,173.149624 218.299464,161.942857 194.148835,154.711824 C192.297694,154.157518 190.454882,153.625796 188.604297,153.116658 C170.713728,148.203159 152.486639,145.389866 127.069893,143.50931 C118.130718,142.848041 105.48093,142.247601 84.474492,141.479099 C49.5951861,140.202927 33.4438629,138.897675 16.7344486,136.028851 C10.6040538,134.976351 6.24455705,134.051966 1.00349848,132.657269 L1.00516443,132.656844 Z M129.368895,147.641738 C118.686587,147.672674 106.384149,148.176786 90.83562,149.176462 C48.3151861,151.909938 42.8980928,152.161066 27.4686785,152.125102 C18.6758282,152.104607 9.32766334,151.614301 1.00460911,150.783732 L1.00460911,169.974064 C8.84565033,170.250405 17.184531,169.929051 26.3147349,169.007297 C39.9810256,167.627604 50.0111167,165.989977 74.1328694,161.212832 C79.7509866,160.100121 86.7993163,158.718417 89.8032902,158.13128 C107.887108,154.596353 121.400687,152.591316 133.778648,151.617588 C163.585156,149.272597 187.269321,153.926886 207.418908,166.095123 C218.164522,172.584065 228.133807,181.383582 237.21431,192.391195 C243.659846,200.203836 250.668748,210.786845 256.311854,221.176887 L256.311854,202.796319 C244.226544,186.29476 229.303577,173.146724 212.694674,164.427642 C204.257503,159.999074 195.376357,156.520645 185.727212,153.913854 C177.21313,151.613953 168.105416,149.994966 158.186943,148.98334 C149.117269,148.058105 140.053702,147.61084 129.371672,147.64197 L129.368895,147.641738 Z M146.65306,151.375858 C132.123811,151.509078 115.502692,153.577264 93.5427783,157.756522 C90.6240451,158.311988 84.1518542,159.581006 79.1654074,160.572213 C51.6976069,166.032515 42.7978586,167.539125 29.3703531,169.031427 C18.9918022,170.184974 9.61531627,170.61592 1.00488677,170.324498 L1.00488677,187.254915 C7.01533362,186.566499 13.3464746,185.582678 20.7099453,184.221702 C33.6246178,181.834714 46.033954,178.841835 68.858492,172.620493 C101.272201,163.785013 109.932331,161.605532 122.3686,159.158451 C155.509772,152.635865 178.932939,154.242245 198.58552,164.390983 C206.351039,168.401134 214.374778,174.614741 220.69398,181.502765 C233.613928,195.585859 244.160739,215.393762 252.477407,241.175514 L253.579374,244.571265 L254.707356,241.151306 C255.060342,240.08299 255.720916,238.110166 256.312548,236.341832 L256.312548,222.009312 C250.674995,211.566291 243.553364,200.721868 237.162804,192.897627 C225.02113,178.031838 210.665694,166.834352 195.419811,160.317566 C190.004384,158.00297 189.079507,157.680921 181.918726,155.713433 C176.261459,154.159219 173.893598,153.599268 171.246136,153.17563 C163.335125,151.909629 155.373581,151.295113 146.656253,151.375045 L146.65306,151.375858 Z" id="rect4878-9" stroke-opacity="0.66667" stroke="#FFFFFF" fill-opacity="0.21461" fill="#FFFFFF" opacity="0.37449"></path>
        </g>
    </g>
</svg>