<svg width="128" height="128" viewBox="0 0 128 128" xmlns="http://www.w3.org/2000/svg"><title>certificate</title><defs><linearGradient x1="90.794%" y1="55.015%" x2="32.465%" y2="50.401%" id="a"><stop stop-color="#A00" offset="0%"/><stop stop-color="#F00" offset="52.294%"/><stop stop-color="#FAA" offset="100%"/></linearGradient><linearGradient x1="14.215%" y1="77.049%" x2="80.738%" y2="69.208%" id="b"><stop stop-color="#A00" offset="0%"/><stop stop-color="#F00" offset="52.294%"/><stop stop-color="#FAA" offset="100%"/></linearGradient><radialGradient cx="32.184%" cy="33.435%" fx="32.184%" fy="33.435%" r="71.358%" id="c"><stop stop-color="#FFF6D5" offset="0%"/><stop stop-color="#FC0" offset="53.957%"/><stop stop-color="#806600" offset="100%"/></radialGradient><radialGradient cx="93.204%" cy="89.964%" fx="93.204%" fy="89.964%" r="75.692%" id="d"><stop stop-color="#FFF6D5" offset="0%"/><stop stop-color="#FC0" offset="53.957%"/><stop stop-color="#806600" offset="100%"/></radialGradient><radialGradient cx="23.61%" cy="23.892%" fx="23.61%" fy="23.892%" id="e"><stop stop-color="#FFF6D5" offset="0%"/><stop stop-color="#FC0" offset="53.957%"/><stop stop-color="#806600" offset="100%"/></radialGradient></defs><g fill="none" fill-rule="evenodd"><path fill="url(#a)" fill-rule="nonzero" d="M49.615 65.3l-19.17 55.405 15.685-6.373 11.546 7.674 5.882-57.226-6.1-4.943z"/><path fill="url(#b)" fill-rule="nonzero" d="M79.896 65.3l19.17 55.405-15.685-6.373-11.546 7.674-5.882-57.226 6.1-4.943z"/><path fill="url(#c)" d="M65.241 6.48l-4.636 8.985-6.535-7.727-2.163 9.913-8.323-5.784.485 10.11-9.537-3.421 3.07 9.647-10.068-.839 4.57 7.11-8.39 1.059 7.132 7.197-9.36 3.841 8.741 5.1-8.058 6.137 9.758 2.671-6.203 8.014 10.133.044-3.908 9.339 8.146-2.142-1.567 8.28 9.052-4.549.75 10.09 7.55-6.734 3.356 9.56 5.541-8.456 5.718 8.367 3.18-9.626 7.66 6.601.486-8.389 7.395 4.04-1.545-10.023 9.846 2.406-4.084-9.272 10.133-.22-6.336-7.904 9.714-2.826-8.147-5.983 8.654-5.254-7.859-3.069 6.137-5.784-10-1.633 5.32-8.61-10.067.993 2.914-9.692-9.47 3.577.308-10.111-8.212 5.916-2.318-9.846-5.52 7.771z"/><path d="M65.109 9.13l-3.532 6.844a1.094 1.094 0 0 1-1.81.198l-5.1-6.027-1.7 7.75a1.094 1.094 0 0 1-1.678.662l-6.513-4.526.376 7.903a1.094 1.094 0 0 1-1.457 1.082l-7.44-2.671 2.384 7.528a1.094 1.094 0 0 1-1.126 1.413l-7.86-.662 3.379 5.254a1.094 1.094 0 0 1-.795 1.678l-6.182.772 5.564 5.63a1.094 1.094 0 0 1-.354 1.788l-7.307 3.003 6.822 3.973a1.094 1.094 0 0 1 .11 1.81l-6.292 4.791 7.617 2.098a1.094 1.094 0 0 1 .574 1.722l-4.835 6.247 7.903.045a1.094 1.094 0 0 1 1.016 1.523l-3.047 7.285 5.983-1.567a1.094 1.094 0 0 1 1.369 1.258L40.03 82.05l7.064-3.554a1.094 1.094 0 0 1 1.568.883l.596 7.881 5.894-5.254a1.094 1.094 0 0 1 1.766.464l2.628 7.462 4.327-6.601a1.094 1.094 0 0 1 1.81-.023l4.46 6.534 2.494-7.528a1.094 1.094 0 0 1 1.744-.486l6.005 5.166.353-6.181a1.094 1.094 0 0 1 1.612-.883l5.453 2.98-1.214-7.837a1.094 1.094 0 0 1 1.346-1.236l7.705 1.876-3.2-7.24a1.094 1.094 0 0 1 .97-1.546l7.904-.177-4.945-6.16a1.094 1.094 0 0 1 .552-1.743l7.572-2.208-6.336-4.658a1.094 1.094 0 0 1 .066-1.81l6.778-4.107-5.806-2.274a1.094 1.094 0 0 1-.354-1.81l4.526-4.26-7.815-1.281a1.094 1.094 0 0 1-.75-1.656l4.172-6.733-7.882.772a1.094 1.094 0 0 1-1.148-1.39l2.274-7.595-7.395 2.804a1.094 1.094 0 0 1-1.502-1.06l.243-7.881-6.402 4.614a1.094 1.094 0 0 1-1.7-.64l-1.766-7.485-4.128 5.807a1.094 1.094 0 0 1-1.899-.243l-2.56-6.623-.001.001z" fill="url(#d)"/><path d="M95.752 49.41c0 17.558-14.233 31.79-31.79 31.79-17.558 0-31.791-14.232-31.791-31.79 0-17.557 14.233-31.79 31.79-31.79 17.558 0 31.791 14.233 31.791 31.79z" fill="url(#e)"/></g></svg>