<?xml version="1.0" encoding="UTF-8"?>
<svg width="128px" height="128px" viewBox="0 0 128 128" version="1.1" xmlns="http://www.w3.org/2000/svg" xmlns:xlink="http://www.w3.org/1999/xlink">
    <!-- Generator: Sketch 41 (35326) - http://www.bohemiancoding.com/sketch -->
    <title>envelope</title>
    <desc>Created with Sketch.</desc>
    <defs></defs>
    <g id="Page-1" stroke="none" stroke-width="1" fill="none" fill-rule="evenodd">
        <g id="envelope" fill="#000000">
            <path d="M109.201101,18.1859553 L18.6532761,18.1859553 C10.5704199,18.1859553 4,24.7563752 4,32.8392314 L4,94.7251486 C4,102.808005 10.5704199,109.378425 18.6532761,109.378425 L109.176306,109.378425 C117.259163,109.378425 123.829583,102.808005 123.829583,94.7251486 L123.829583,32.8640254 C123.854377,24.7811692 117.283957,18.1859553 109.201101,18.1859553 L109.201101,18.1859553 Z M117.159987,94.7251486 C117.159987,99.1136932 113.589645,102.684035 109.201101,102.684035 L18.6532761,102.684035 C14.2647315,102.684035 10.6943901,99.1136932 10.6943901,94.7251486 L10.6943901,32.8640254 C10.6943901,28.4754808 14.2647315,24.9051394 18.6532761,24.9051394 L109.176306,24.9051394 C113.564851,24.9051394 117.135192,28.4754808 117.135192,32.8640254 L117.135192,94.7251486 L117.159987,94.7251486 L117.159987,94.7251486 Z" id="Shape"></path>
            <path d="M79.5722259,63.0135748 L108.878778,36.7318952 C110.24245,35.4921934 110.36642,33.3847002 109.126718,31.9962341 C107.887017,30.632562 105.779523,30.5085918 104.391057,31.7482937 L63.9767764,68.0219704 L56.0922725,60.9804638 C56.0674785,60.9556697 56.0426844,60.9308757 56.0426844,60.9060817 C55.8691262,60.7325234 55.6955679,60.5837592 55.4972156,60.4349949 L23.4137313,31.7234997 C22.0252652,30.4837978 19.917772,30.607768 18.6780701,31.9962341 C17.4383682,33.3847002 17.5623384,35.4921934 18.9508045,36.7318952 L48.6044732,63.2367212 L19.0747747,90.8820728 C17.7358967,92.1465687 17.6615146,94.2540619 18.9260105,95.617734 C19.5954495,96.311967 20.4880348,96.6838776 21.3806202,96.6838776 C22.1988234,96.6838776 23.0170267,96.3863491 23.6616716,95.7912922 L53.6376628,67.749236 L61.7701071,75.0138889 C62.414752,75.5841518 63.2081612,75.8568862 64.0015704,75.8568862 C64.7949796,75.8568862 65.6131828,75.5593577 66.2330338,74.9890949 L74.5886244,67.5012956 L104.391057,95.8160863 C105.035702,96.4359372 105.8787,96.7334656 106.696903,96.7334656 C107.589488,96.7334656 108.457279,96.3863491 109.126718,95.6921161 C110.391214,94.3532381 110.341626,92.2209508 109.002748,90.9564549 L79.5722259,63.0135748 L79.5722259,63.0135748 Z" id="Shape"></path>
        </g>
    </g>
</svg>