<svg width="128" height="128" viewBox="0 0 128 128" xmlns="http://www.w3.org/2000/svg"><title>facebook</title><path d="M117.377 4H10.623A6.622 6.622 0 0 0 4 10.623v106.754A6.623 6.623 0 0 0 10.623 124h57.473V77.53H52.457V59.42h15.639V46.062c0-15.5 9.466-23.939 23.293-23.939 6.623 0 12.315.493 13.974.714v16.197l-9.59.005c-7.52 0-8.975 3.573-8.975 8.817v11.562h17.934l-2.336 18.11H86.798V124h30.58a6.623 6.623 0 0 0 6.622-6.623V10.623A6.622 6.622 0 0 0 117.377 4" fill="#3D5B97" fill-rule="evenodd"/></svg>