<?xml version="1.0" encoding="UTF-8"?>
<svg width="16px" height="16px" viewBox="0 0 16 16" version="1.1" xmlns="http://www.w3.org/2000/svg" xmlns:xlink="http://www.w3.org/1999/xlink">
    <!-- Generator: Sketch 42 (36781) - http://www.bohemiancoding.com/sketch -->
    <title>favicon</title>
    <desc>Created with Sketch.</desc>
    <defs></defs>
    <g id="Page-1" stroke="none" stroke-width="1" fill="none" fill-rule="evenodd">
        <g id="favicon" fill-rule="nonzero" fill="#F26100">
            <path d="M11.1441518,9.35291096 C11.1441518,9.35291096 11.167765,9.50302284 11.0749992,9.47434978 C11.0749992,9.47434978 10.9856067,9.57892211 10.9350072,9.55699565 C10.9350072,9.55699565 10.9299473,9.59747526 10.7106827,9.52157599 C10.7106827,9.52157599 10.64153,9.36977746 10.6516499,9.3242379 L10.6668298,9.27869834 C10.6668298,9.27869834 10.6314101,9.20785903 10.6921296,9.17243937 L10.7326092,9.14207966 C10.7326092,9.14207966 10.7174293,9.02738744 10.7427291,8.92618842 C10.7427291,8.92618842 10.6229769,8.61921805 10.5369577,8.59560495 C10.5369577,8.59560495 10.270467,8.62596466 10.2249274,8.6006649 C10.2249274,8.6006649 10.371666,9.13870636 10.4425053,9.72228739 C10.4425053,9.72228739 10.5032247,9.80493325 10.4475653,9.85384611 C10.4475653,9.85384611 10.4593718,10.3159883 10.4138322,10.5419995 C10.4138322,10.5419995 10.3042,10.8455965 10.2603471,10.9113759 C10.2603471,10.9113759 10.2586604,11.2908722 10.0832488,11.6163957 C10.0832488,11.6163957 10.0124095,11.7547011 9.98879636,11.9132462 C9.98879636,11.9132462 9.90615049,12.348402 9.92301699,12.4749008 C9.92301699,12.4749008 9.82856457,12.5136937 9.76278521,12.4749008 L9.74591871,12.5238136 C9.74591871,12.5238136 9.63628643,12.5187537 9.59749347,12.4900806 C9.59749347,12.4900806 9.57050707,12.7211517 9.61435998,12.7548847 C9.61435998,12.7548847 9.58062697,12.7987376 9.55364056,12.8037976 C9.55364056,12.8037976 9.4979811,12.8746369 9.5047277,12.9910158 C9.5047277,12.9910158 9.52496751,13.2625665 9.64977963,13.4396648 C9.64977963,13.4396648 9.64471968,13.4379781 9.63797308,13.4346048 C10.096742,13.6454361 10.4155189,14.1126383 10.4155189,14.6574263 C10.4155189,15.3995525 9.82181797,16 9.08981172,16 C8.35780546,16 7.76410454,15.3995525 7.76410454,14.6574263 C7.76410454,14.065412 8.14191422,13.5644769 8.66477583,13.385692 C8.65634258,13.3688254 8.65634258,13.3452123 8.67489573,13.3114793 L8.74573505,13.2676264 C8.74573505,13.2676264 8.76260155,13.1461876 8.79633456,13.0686017 L8.69682219,12.5659799 C8.69682219,12.5659799 8.48767754,12.5457401 8.43201808,12.5288736 C8.43201808,12.5288736 8.38816517,12.5069471 8.24985984,12.5018872 L8.24479989,12.5575466 L8.00192224,12.5305602 L7.99686229,11.9520392 C7.99686229,11.9520392 7.79783755,11.4342375 7.78097104,10.9164358 L7.76410454,10.4205606 C7.76410454,10.4205606 7.66459217,10.0680507 7.68651862,9.5451891 C7.68651862,9.5451891 7.68145867,8.3662205 7.75229799,8.11322295 L7.8332572,7.36941014 L7.8332572,7.15183225 L7.8231373,7.14339899 C7.8231373,7.14339899 7.71181838,6.66945025 7.68989192,6.30007382 C7.68989192,6.30007382 7.53303344,5.90371099 7.53809339,5.68781974 L7.53303344,5.63722023 C7.10462425,5.4921683 6.53790973,4.5375242 6.53790973,4.5375242 C6.38779785,4.50885114 6.50249008,4.11586161 6.50249008,4.11586161 C6.52104323,3.99273614 6.52610318,3.86117741 6.52610318,3.86117741 C6.51429663,3.76841164 6.60200245,3.61155316 6.60200245,3.61155316 C6.55646289,3.39734856 6.64248206,2.54559013 6.64248206,2.54559013 C6.6374221,2.46463091 6.61886895,2.35499864 6.61886895,2.35499864 C6.57332939,2.27403943 6.53790973,1.97718896 6.53790973,1.97718896 C6.50080343,1.88948314 6.49743012,1.82201713 6.50417673,1.77647757 L5.58663893,0.821833471 C5.49218651,0.742560904 5.22569576,0.691961394 5.22569576,0.691961394 L5.22569576,0.686901443 C5.15148314,0.698707995 5.09245038,0.685214792 5.04691082,0.637988582 C4.94739845,0.535102911 5.01317781,0.322584966 5.17846955,0.160666532 C5.34376128,-0.00125190154 5.55965253,-0.0484781114 5.6591649,0.0544075601 C5.71145106,0.108380371 5.72157096,0.192712889 5.69458456,0.285478659 L5.69458456,0.285478659 C5.69458456,0.518236407 5.81096343,0.685214792 5.81096343,0.685214792 L6.68970826,1.6769652 C6.75886093,1.6769652 6.81452039,1.69214505 6.75886093,1.75623777 L6.76729418,1.76467102 C6.82970024,1.73262466 6.93764587,1.69214505 6.89379296,1.82876373 C6.89379296,1.82876373 6.98993203,1.77479092 7.02535169,1.89116979 C7.02535169,1.89116979 7.1130575,1.88273654 7.13498396,1.97718896 C7.13498396,1.97718896 7.19907667,2.1391074 7.17883687,2.19308021 C7.17883687,2.19308021 7.17377692,2.20151346 7.16703031,2.21500666 L8.58212996,3.81226455 C8.61417632,3.75997839 8.66477583,3.70937888 8.7474217,3.68576577 L8.82500761,3.61155316 C8.82500761,3.61155316 8.90090688,3.44963472 9.10836487,3.54746044 C9.10836487,3.54746044 9.28714981,3.47662113 9.40352868,3.65877937 C9.40352868,3.65877937 9.4676214,3.60480655 9.57219372,3.8476842 C9.57219372,3.8476842 9.76278521,3.95731648 9.77459176,4.31151305 C9.77459176,4.31151305 9.81001142,4.66570963 9.73411215,4.72980234 C9.73411215,4.72980234 9.67001944,5.03171275 9.58400027,5.0199062 C9.58400027,5.0199062 9.54858061,5.12616517 9.52665416,5.12616517 L9.62447988,5.22905084 L9.68013934,5.22905084 L9.81001142,5.31169671 L9.81001142,5.35892292 L10.1490281,5.54276781 C10.1490281,5.54276781 10.6499633,5.61192047 10.5571975,6.11622893 C10.5571975,6.11622893 10.5538242,6.71836311 10.5706907,6.79426237 C10.5706907,6.79426237 10.5892439,6.95618081 10.5723774,6.96292741 C10.5723774,6.96292741 10.5875572,7.26483782 10.6263502,7.29857083 C10.6263502,7.29857083 10.8051351,7.56168828 10.8388681,8.04407028 C10.8388681,8.04407028 10.8742878,8.28863458 10.9029608,8.33586079 C10.9029608,8.33586079 10.955247,8.48597268 10.9029608,8.50452583 C10.9029608,8.50452583 11.0075332,8.77101659 11.0362062,8.78788309 C11.0362062,8.78788309 11.1053589,8.91606852 11.1407785,9.13027311 C11.1441518,9.13195976 11.2318577,9.36471751 11.1441518,9.35291096 Z M8.62092292,4.67414288 C8.62092292,4.67414288 8.50791735,4.66233633 8.53153045,4.41271207 L8.51129065,4.18164097 C8.51129065,4.18164097 8.50791735,4.01972254 8.53153045,3.99610944 C8.53153045,3.99610944 8.53153045,3.95900313 8.54502365,3.91177692 L7.0725779,2.3701785 C7.05402474,2.3971649 7.03209829,2.42583796 7.01017183,2.45113771 C7.01017183,2.45113771 6.96969222,2.75642143 7.01523178,3.1274845 C7.01523178,3.1274845 7.26991599,3.31976264 7.21762983,3.65540606 C7.21762983,3.65540606 7.27328929,3.78696479 7.29352909,3.95562983 C7.29352909,3.95562983 7.33906865,3.95562983 7.37954826,4.24573369 C7.37954826,4.24573369 7.46050748,4.3098264 7.53640674,4.39078562 L7.82482395,4.56957056 C7.82482395,4.56957056 7.90409652,4.51222444 8.13685427,4.73148899 C8.13685427,4.73148899 8.23130669,4.74329554 8.42189818,4.92882708 L8.62092292,4.90015403 L8.62092292,4.67414288 L8.62092292,4.67414288 Z" id="Shape"></path>
        </g>
    </g>
</svg>