<svg width="128" height="128" viewBox="0 0 128 128" xmlns="http://www.w3.org/2000/svg"><title>gears</title><g fill="#FFF" fill-rule="evenodd"><path d="M116.957 13.435v-.13c-1.957-2.61-4.305-4.827-7.044-6.914v.13a129.201 129.201 0 0 0-6.522 5.349 47.72 47.72 0 0 0-2.478-1.305c-1.043-.522-2.087-1.043-3.26-1.304C97.26 9.13 96.87 9 96.477 9c-.26-2.87-.521-5.74-.913-8.609-1.304-.26-2.608-.26-4.043-.391H89.435c-1.305.13-2.478.13-3.652.391A88.963 88.963 0 0 0 85 8.87c-.522 0-.913.13-1.435.26-.13 0-.26 0-.391.13-1.044.262-2.087.783-3.13 1.305-.914.392-1.696.783-2.479 1.305-2.217-1.827-4.304-3.522-6.522-5.348l-.13-.13c-.522.39-1.043.782-1.435 1.173-.913.652-1.695 1.435-2.348 2.218-1.173 1.043-2.087 2.347-3.13 3.652h.13c1.696 2.217 3.522 4.304 5.348 6.522a24.23 24.23 0 0 0-1.435 2.478c-.521 1.043-.913 2.217-1.173 3.26-.261.522-.392 1.044-.392 1.435-2.87.261-5.739.522-8.478.913a20.251 20.251 0 0 0-.391 4.044c0 1.956.13 3.913.521 5.74 2.74.26 5.479.52 8.348.782 0 .521.13 1.043.392 1.434.26 1.174.652 2.218 1.173 3.392.522.913.914 1.826 1.566 2.608-1.826 2.218-3.652 4.305-5.348 6.522a30.09 30.09 0 0 0 7.043 7.044v-.13c2.087-1.696 4.305-3.522 6.392-5.349h.13c.652.392 1.435.783 2.087 1.174 1.174.522 2.478 1.044 3.652 1.305.522.13.913.26 1.305.391.26 2.74.521 5.609.913 8.478 1.174.13 2.347.261 3.652.261h1.956c1.435 0 2.87-.13 4.305-.391.26-2.74.521-5.609.782-8.478l1.174-.392a13.877 13.877 0 0 0 3.261-1.174 14.676 14.676 0 0 0 2.74-1.565c0 .13 0 .13.13.13a129.2 129.2 0 0 0 6.521 5.348c.392-.26.783-.521 1.305-.913a17.805 17.805 0 0 0 2.217-2.217c1.174-1.174 2.348-2.478 3.391-3.913-1.826-2.217-3.652-4.435-5.478-6.522v-.13c.391-.652.783-1.435 1.174-2.218.391-1.043.913-2.087 1.174-3.13 0-.13 0-.261.13-.261 0-.522.13-.913.261-1.174 2.87-.26 5.74-.522 8.479-.782.26-1.305.26-2.61.39-3.914v-2.217c-.13-1.304-.13-2.609-.39-3.913-2.74-.26-5.61-.522-8.479-.783-.13-.39-.26-.782-.26-1.173-.392-1.174-.783-2.348-1.305-3.522-.391-.783-.913-1.696-1.304-2.478 1.695-2.087 3.521-4.305 5.348-6.522zM82.13 24.26c2.348-2.478 5.218-3.652 8.479-3.522 3.391-.13 6.13 1.044 8.608 3.522 2.348 2.348 3.522 5.217 3.522 8.478 0 3.391-1.174 6.13-3.522 8.609C96.74 43.696 94 44.87 90.61 44.87c-3.261 0-6.13-1.174-8.479-3.522-2.347-2.478-3.521-5.218-3.521-8.609 0-3.26 1.174-6.13 3.521-8.478z"/><path d="M90.74 22.435c-2.87 0-5.218 1.043-7.305 3-1.957 2.087-3 4.435-3 7.304 0 2.87 1.043 5.218 3 7.304 2.087 2.087 4.435 3.13 7.304 3.13 2.87 0 5.218-1.043 7.304-3.13 2.087-2.086 3-4.434 3-7.304s-.913-5.217-3-7.304c-2.086-1.957-4.434-3-7.304-3zm-5.48 4.826c1.566-1.435 3.392-2.218 5.48-2.218 2.086 0 3.912.783 5.477 2.218 1.566 1.565 2.218 3.26 2.218 5.478s-.652 4.044-2.218 5.478c-1.565 1.566-3.39 2.348-5.478 2.348-2.087 0-3.913-.782-5.478-2.348-1.435-1.434-2.218-3.26-2.218-5.478 0-2.087.783-3.913 2.218-5.478zM57.217 43.826c-.521-.26-.913-.391-1.304-.391-1.565-.392-3.13-.652-4.696-.913-1.434 3.521-2.608 6.913-3.782 10.304h-2.348c-1.565.13-3 .261-4.435.522-1.174.13-2.348.522-3.522.913-2.087-3-4.304-6-6.39-8.87l-.131-.13c-.783.26-1.566.522-2.218.913-1.304.522-2.478 1.174-3.652 1.956a22.203 22.203 0 0 0-5.087 3.522v.13c1.565 3.261 3 6.522 4.565 9.783-.913.913-1.695 1.696-2.478 2.74-1.043 1.043-1.956 2.347-2.739 3.652-.391.521-.652 1.043-.913 1.695-3.652-.652-7.304-1.304-10.957-1.826-.652 1.565-1.304 3.13-1.826 4.826C4.783 75.261 4.261 77.74 4 80.217c3.391 1.305 6.783 2.61 10.174 3.913v1.827c0 1.434.13 3 .522 4.565.13 1.304.521 2.608.913 3.913-3 2.087-5.87 4.174-8.87 6.391 1.565 3.913 3.783 7.565 6.391 10.957h.13c3.262-1.566 6.523-3 9.914-4.566.783.783 1.565 1.435 2.348 2.218 1.174 1.043 2.608 1.956 4.174 2.87.391.26.913.521 1.434.912-.652 3.522-1.173 7.174-1.695 10.826a25.527 25.527 0 0 0 4.435 1.566c.39.13 1.173.391 2.478.652 1.826.522 3.652.782 5.348 1.043 1.434-3.521 2.739-6.913 3.913-10.434H47.304c1.566 0 3-.13 4.435-.392 1.304-.26 2.609-.652 3.913-1.043 0 0 0 .13.13.13 2.088 3 4.305 6 6.392 9 .652-.391 1.304-.652 1.826-.913 1.304-.522 2.478-1.174 3.652-1.826a41.582 41.582 0 0 0 5.478-3.913c-1.434-3.391-3-6.652-4.565-10.043.783-.783 1.435-1.566 2.218-2.348a63.272 63.272 0 0 0 2.608-3.652c0-.13.13-.261.13-.392.262-.391.522-.913.783-1.304 3.653.652 7.305 1.174 10.957 1.826.652-1.565 1.174-3.13 1.696-4.826.13-.391.26-.783.39-1.304.131-.392.131-.783.392-1.305.261-1.695.652-3.391.783-4.956-3.392-1.435-6.913-2.609-10.305-3.913V84.13c0-1.565-.13-3.26-.521-4.826-.13-1.174-.522-2.347-.783-3.521 3-2.087 6-4.305 8.87-6.522h.13c-1.565-3.913-3.652-7.565-6.522-10.957-3.391 1.435-6.652 3-9.913 4.566-.913-.913-1.826-1.827-2.739-2.61-1.174-.912-2.348-1.825-3.652-2.477-.391-.392-.913-.653-1.304-.913.521-3.653 1.174-7.305 1.695-10.957-1.565-.652-3.26-1.304-4.956-1.826-.392-.13-.913-.26-1.305-.26zM32.957 92.61c-2.218-3.783-2.74-7.696-1.566-11.87 1.044-4.174 3.522-7.304 7.305-9.522 3.652-2.087 7.695-2.608 11.739-1.565 4.174 1.174 7.435 3.522 9.522 7.305 2.217 3.782 2.739 7.695 1.565 11.87C60.478 93 58 96.13 54.348 98.216c-3.913 2.218-7.826 2.74-11.87 1.566-4.174-1.044-7.435-3.522-9.521-7.174z"/><path d="M33.74 81.391c-1.044 3.522-.653 6.913 1.173 10.044h.13c1.827 3.26 4.566 5.217 8.087 6.26 3.522.914 6.913.522 10.174-1.304 3.261-1.956 5.218-4.565 6.261-8.087v-.13c.913-3.522.392-6.913-1.435-10.044-1.826-3.26-4.565-5.347-8.087-6.26-3.521-1.044-7.043-.522-10.173 1.304-3.261 1.826-5.218 4.565-6.13 8.217zm7.825-5.217c2.478-1.435 4.957-1.826 7.565-1.044 2.61.653 4.696 2.218 6.13 4.696 1.436 2.348 1.697 4.957 1.044 7.565-.782 2.609-2.347 4.696-4.695 6v.13c-2.479 1.305-4.957 1.696-7.566.914-2.739-.652-4.695-2.218-6.13-4.696-1.304-2.348-1.696-4.826-1.043-7.565.782-2.609 2.347-4.565 4.695-6z"/></g></svg>