<svg width="128" height="128" viewBox="0 0 128 128" xmlns="http://www.w3.org/2000/svg"><title>gift-apply</title><g fill="none" fill-rule="evenodd"><path stroke="#979797" d="M64.886 12.574l-5.542 10.74-7.812-9.236-2.586 11.85-9.95-6.915.581 12.087-11.4-4.09 3.668 11.532-12.034-1.003 5.463 8.498-10.029 1.267 8.524 8.603-11.19 4.592 10.452 6.096-9.633 7.336 11.665 3.194-7.416 9.58 12.113.052-4.671 11.163 9.738-2.56-1.874 9.897 10.82-5.436.898 12.06 9.025-8.05 4.012 11.428 6.624-10.108 6.835 10.002 3.8-11.506 9.157 7.89.581-10.028 8.84 4.83L91.7 94.357l11.77 2.877-4.883-11.084 12.113-.264-7.574-9.448 11.612-3.378L105 65.908l10.345-6.28-9.395-3.669 7.337-6.914-11.955-1.953 6.36-10.293-12.034 1.188 3.483-11.585-11.321 4.275.37-12.087-9.818 7.073-2.771-11.77-6.598 9.29z"/><path d="M64.699 19.001l-3.923 7.623a1.215 1.215 0 0 1-2.01.222l-5.664-6.714-1.887 8.631a1.212 1.212 0 0 1-1.863.738l-7.233-5.04.417 8.802a1.22 1.22 0 0 1-.49 1.035 1.212 1.212 0 0 1-1.128.17l-8.262-2.975 2.647 8.385c.119.385.04.803-.21 1.118-.25.315-.64.486-1.04.456l-8.728-.738 3.751 5.853a1.221 1.221 0 0 1-.882 1.868l-6.865.861 6.178 6.27a1.22 1.22 0 0 1-.392 1.992L19 60.902l7.576 4.426a1.219 1.219 0 0 1 .122 2.017l-6.987 5.336 8.458 2.336a1.221 1.221 0 0 1 .637 1.918l-5.369 6.959 8.777.049c.41-.004.794.2 1.022.542.227.343.267.777.106 1.155l-3.383 8.114 6.644-1.746c.405-.113.84-.008 1.149.277.31.285.45.71.37 1.125l-1.274 6.811 7.845-3.959c.359-.174.78-.162 1.128.035.347.196.576.55.613.949l.662 8.779 6.546-5.853a1.212 1.212 0 0 1 1.961.517L58.52 109l4.806-7.352a1.214 1.214 0 0 1 2.01-.026l4.952 7.278 2.77-8.385a1.212 1.212 0 0 1 1.937-.541l6.669 5.754.392-6.885c.03-.412.266-.782.628-.98.362-.2.8-.2 1.162-.003l6.056 3.32-1.349-8.73a1.22 1.22 0 0 1 .378-1.093 1.212 1.212 0 0 1 1.118-.284l8.556 2.09-3.555-8.065a1.221 1.221 0 0 1 .078-1.152c.217-.347.593-.56 1-.57l8.778-.196-5.492-6.861a1.221 1.221 0 0 1 .613-1.943l8.41-2.459-7.037-5.188a1.22 1.22 0 0 1 .073-2.017L109 60.14l-6.448-2.533a1.217 1.217 0 0 1-.392-2.016l5.026-4.746-8.68-1.426a1.221 1.221 0 0 1-.834-1.844l4.635-7.5-8.752.86a1.213 1.213 0 0 1-1.044-.438 1.221 1.221 0 0 1-.231-1.111l2.525-8.459-8.213 3.123a1.212 1.212 0 0 1-1.154-.135 1.22 1.22 0 0 1-.513-1.045l.27-8.779-7.11 5.14a1.212 1.212 0 0 1-1.888-.714l-1.961-8.336-4.585 6.467a1.213 1.213 0 0 1-2.108-.27L64.699 19v.001z" stroke="#979797" fill="#9B9B9B"/><rect fill="#FFF" fill-rule="nonzero" x="34.713" y="58.023" width="57.379" height="11.476" rx="4"/><rect fill="#FFF" fill-rule="nonzero" transform="rotate(90 63.76 63.402)" x="35.071" y="57.664" width="57.379" height="11.476" rx="4"/></g></svg>