<svg width="128" height="128" viewBox="0 0 128 128" xmlns="http://www.w3.org/2000/svg"><title>gift-earned</title><defs><radialGradient cx="32.184%" cy="33.435%" fx="32.184%" fy="33.435%" r="71.358%" id="a"><stop stop-color="#FFF6D5" offset="0%"/><stop stop-color="#FC0" offset="53.957%"/><stop stop-color="#806600" offset="100%"/></radialGradient><radialGradient cx="93.204%" cy="89.964%" fx="93.204%" fy="89.964%" r="75.692%" id="b"><stop stop-color="#FFF6D5" offset="0%"/><stop stop-color="#FC0" offset="53.957%"/><stop stop-color="#806600" offset="100%"/></radialGradient><radialGradient cx="23.61%" cy="23.892%" fx="23.61%" fy="23.892%" id="c"><stop stop-color="#FFF6D5" offset="0%"/><stop stop-color="#FFE200" offset="50.221%"/><stop stop-color="#806600" offset="100%"/></radialGradient></defs><g fill="none" fill-rule="evenodd"><path fill="url(#a)" d="M64.886 12.574l-5.542 10.74-7.812-9.236-2.586 11.85-9.95-6.915.581 12.087-11.4-4.09 3.668 11.532-12.034-1.003 5.463 8.498-10.029 1.267 8.524 8.603-11.19 4.592 10.452 6.096-9.633 7.336 11.665 3.194-7.416 9.58 12.113.052-4.671 11.163 9.738-2.56-1.874 9.897 10.82-5.436.898 12.06 9.025-8.05 4.012 11.428 6.624-10.108 6.835 10.002 3.8-11.506 9.157 7.89.581-10.028 8.84 4.83L91.7 94.357l11.77 2.877-4.883-11.084 12.113-.264-7.574-9.448 11.612-3.378L105 65.908l10.345-6.28-9.395-3.669 7.337-6.914-11.955-1.953 6.36-10.293-12.034 1.188 3.483-11.585-11.321 4.275.37-12.087-9.818 7.073-2.771-11.77-6.598 9.29z"/><path d="M64.728 15.742l-4.223 8.18a1.308 1.308 0 0 1-2.164.238l-6.096-7.204-2.032 9.263a1.308 1.308 0 0 1-2.005.791l-7.786-5.41.449 9.448a1.308 1.308 0 0 1-1.742 1.293l-8.893-3.193 2.85 9a1.308 1.308 0 0 1-1.346 1.688l-9.395-.791 4.037 6.28a1.308 1.308 0 0 1-.95 2.006l-7.389.924 6.65 6.73a1.308 1.308 0 0 1-.422 2.137l-8.735 3.59 8.155 4.75a1.308 1.308 0 0 1 .132 2.163L16.3 73.352l9.105 2.507a1.308 1.308 0 0 1 .686 2.059l-5.78 7.468 9.448.053a1.308 1.308 0 0 1 1.214 1.821l-3.642 8.709 7.152-1.874a1.308 1.308 0 0 1 1.637 1.504l-1.373 7.31 8.445-4.248a1.308 1.308 0 0 1 1.874 1.055l.713 9.422 7.046-6.281a1.308 1.308 0 0 1 2.111.554l3.14 8.92 5.173-7.89a1.308 1.308 0 0 1 2.164-.028l5.33 7.811 2.983-8.999a1.308 1.308 0 0 1 2.085-.58l7.178 6.175.422-7.39a1.308 1.308 0 0 1 1.927-1.055l6.519 3.563-1.452-9.37a1.308 1.308 0 0 1 1.61-1.477l9.21 2.243-3.826-8.656a1.308 1.308 0 0 1 1.16-1.847l9.449-.211-5.912-7.363a1.308 1.308 0 0 1 .66-2.085l9.052-2.64-7.574-5.568a1.308 1.308 0 0 1 .079-2.164l8.102-4.908-6.94-2.719a1.308 1.308 0 0 1-.423-2.164l5.41-5.093-9.342-1.53a1.308 1.308 0 0 1-.898-1.98l4.988-8.05-9.421.925a1.308 1.308 0 0 1-1.373-1.663l2.719-9.078-8.841 3.351a1.308 1.308 0 0 1-1.795-1.267l.29-9.421-7.653 5.516a1.308 1.308 0 0 1-2.032-.766l-2.11-8.946-4.936 6.94a1.308 1.308 0 0 1-2.27-.29l-3.06-7.917-.001.002z" fill="url(#b)"/><path d="M101.359 63.892c0 20.989-17.015 38.003-38.003 38.003S25.354 84.881 25.354 63.892c0-20.988 17.014-38.002 38.002-38.002 20.988 0 38.003 17.014 38.003 38.002z" fill="url(#c)"/></g></svg>