<svg width="128" height="128" viewBox="0 0 128 128" xmlns="http://www.w3.org/2000/svg"><title>google</title><g fill="none" fill-rule="evenodd"><path d="M121.6 65.364c0-4.255-.382-8.346-1.09-12.273H64V76.3h32.29c-1.39 7.5-5.617 13.855-11.972 18.11v15.054h19.391c11.346-10.446 17.891-25.828 17.891-44.1z" fill="#4285F4"/><path d="M64 124c16.2 0 29.782-5.373 39.71-14.536L84.317 94.409c-5.373 3.6-12.245 5.727-20.318 5.727-15.627 0-28.855-10.554-33.573-24.736H10.382v15.545C20.255 110.555 40.545 124 64 124z" fill="#34A853"/><path d="M30.427 75.4c-1.2-3.6-1.882-7.445-1.882-11.4s.682-7.8 1.882-11.4V37.055H10.382A59.976 59.976 0 0 0 4 64a59.976 59.976 0 0 0 6.382 26.945L30.427 75.4z" fill="#FBBC05"/><path d="M64 27.864c8.81 0 16.718 3.027 22.936 8.972l17.21-17.209C93.754 9.945 80.172 4 64 4 40.545 4 20.255 17.445 10.382 37.055L30.427 52.6C35.145 38.418 48.373 27.864 64 27.864z" fill="#EA4335"/></g></svg>