<svg width="128" height="128" viewBox="0 0 128 128" xmlns="http://www.w3.org/2000/svg"><title>help</title><path d="M28.674 96.498C20.805 87.948 16 76.535 16 64c0-12.535 4.805-23.948 12.674-32.498l11.328 11.329A31.879 31.879 0 0 0 32 64a31.879 31.879 0 0 0 8.002 21.17L28.674 96.497zm2.828 2.828l11.329-11.328A31.879 31.879 0 0 0 64 96a31.879 31.879 0 0 0 21.17-8.002l11.328 11.328C87.948 107.195 76.535 112 64 112c-12.535 0-23.948-4.805-32.498-12.674zm64.996-70.652L85.169 40.002A31.879 31.879 0 0 0 64 32a31.879 31.879 0 0 0-21.17 8.002L31.503 28.674C40.052 20.805 51.465 16 64 16c12.535 0 23.948 4.805 32.498 12.674zm2.828 2.828C107.195 40.052 112 51.465 112 64c0 12.535-4.805 23.948-12.674 32.498L87.998 85.169A31.879 31.879 0 0 0 96 64a31.879 31.879 0 0 0-8.002-21.17l11.328-11.328z" fill="#D0011B" fill-rule="evenodd"/></svg>