<svg width="128" height="128" viewBox="0 0 128 128" xmlns="http://www.w3.org/2000/svg"><title>joystick</title><defs><linearGradient x1="-4.098%" y1="-47.561%" x2="104.098%" y2="-47.561%" id="a"><stop stop-color="#999895" offset="0%"/><stop stop-color="#FFFEFA" offset="50%"/><stop stop-color="#868381" offset="100%"/></linearGradient></defs><g transform="translate(5 11)" fill="none" fill-rule="evenodd"><path stroke="#000" stroke-width="10" d="M101.346 77.896L76.88 102.361H42.283L17.82 77.896V43.298l24.464-24.464h34.598l24.465 24.464z"/><path fill="#000" d="M101.346 77.896L76.88 102.361H42.283L17.82 77.896V43.298l24.464-24.464h34.598l24.465 24.464z"/><ellipse stroke="#979797" stroke-width="5" fill="#000" transform="rotate(-36.263 59.585 60.597)" cx="59.585" cy="60.597" rx="38.979" ry="38.979"/><circle fill="#646267" cx="59.582" cy="60.597" r="31.323"/><circle fill="#302F35" cx="59.582" cy="60.597" r="29.234"/><path d="M51.09 46.398V60.04h.035a8.487 8.487 0 0 0-.034.696 8.492 8.492 0 1 0 16.983 0 8.507 8.507 0 0 0-.032-.696h.032V46.398H51.091z" stroke="#CCC" stroke-width="5" fill="url(#a)"/><ellipse stroke="#E6E6E6" stroke-width="5" fill="#9B9B9B" cx="59.582" cy="27.564" rx="27.146" ry="27.146"/></g></svg>