<?xml version="1.0" encoding="UTF-8"?>
<svg width="128px" height="128px" viewBox="0 0 128 128" version="1.1" xmlns="http://www.w3.org/2000/svg" xmlns:xlink="http://www.w3.org/1999/xlink">
    <!-- Generator: Sketch 41 (35326) - http://www.bohemiancoding.com/sketch -->
    <title>padlock</title>
    <desc>Created with Sketch.</desc>
    <defs></defs>
    <g id="Page-1" stroke="none" stroke-width="1" fill="none" fill-rule="evenodd">
        <g id="padlock" fill="#000000">
            <path d="M102.465839,56.2732919 L100.701863,56.2732919 L100.701863,40.6459627 C100.701863,20.447205 84.2795031,4 64.0559006,4 C43.8571429,4 27.4099379,20.4223602 27.4099379,40.6459627 C27.4099379,42.5093168 28.9006211,44 30.7639752,44 C32.6273292,44 34.1180124,42.5093168 34.1180124,40.6459627 C34.1180124,24.1490683 47.5341615,10.7080745 64.0559006,10.7080745 C80.552795,10.7080745 93.9937888,24.1242236 93.9937888,40.6459627 L93.9937888,56.2732919 L25.6708075,56.2732919 C22.0931677,56.2732919 19.1863354,59.1801242 19.1863354,62.757764 L19.1863354,104.521739 C19.1863354,115.229814 27.9068323,123.950311 38.6149068,123.950311 L89.5217391,123.950311 C100.229814,123.950311 108.950311,115.229814 108.950311,104.521739 L108.950311,62.757764 C108.950311,59.1801242 106.043478,56.2732919 102.465839,56.2732919 L102.465839,56.2732919 Z M102.242236,104.521739 C102.242236,111.52795 96.552795,117.242236 89.5217391,117.242236 L38.6397516,117.242236 C31.6335404,117.242236 25.9192547,111.552795 25.9192547,104.521739 L25.9192547,62.9813665 L102.242236,62.9813665 L102.242236,104.521739 Z" id="Shape"></path>
            <path d="M64.0807453,103.15528 C71.0124224,103.15528 76.6273292,97.515528 76.6273292,90.6086957 C76.6273292,83.6770186 70.9875776,78.0621118 64.0807453,78.0621118 C57.1490683,78.0621118 51.5341615,83.7018634 51.5341615,90.6086957 C51.5341615,97.515528 57.1490683,103.15528 64.0807453,103.15528 Z M64.0807453,84.7453416 C67.310559,84.7453416 69.9192547,87.378882 69.9192547,90.5838509 C69.9192547,93.7888199 67.310559,96.447205 64.0807453,96.447205 C60.8509317,96.447205 58.242236,93.8136646 58.242236,90.6086957 C58.242236,87.4037267 60.8509317,84.7453416 64.0807453,84.7453416 Z" id="Shape"></path>
        </g>
    </g>
</svg>