<svg width="128" height="128" viewBox="0 0 128 128" xmlns="http://www.w3.org/2000/svg"><title>shared-with</title><path d="M79.138 57.48a17.948 17.948 0 0 0-1.108 6.23c0 2.484.503 4.85 1.414 7.002L45.921 90.066c-3.298-4.038-8.316-6.616-13.936-6.616C22.052 83.45 14 91.502 14 101.435s8.052 17.985 17.985 17.985 17.985-8.052 17.985-17.985c0-1.75-.25-3.44-.715-5.039L83.5 76.626a17.926 17.926 0 0 0 12.515 5.068c9.933 0 17.985-8.052 17.985-17.985 0-9.932-8.052-17.985-17.985-17.985-5.17 0-9.83 2.182-13.111 5.674L49 31.825c.628-1.831.97-3.796.97-5.84C49.97 16.052 41.917 8 31.984 8S14 16.052 14 25.985 22.052 43.97 31.985 43.97c5.32 0 10.1-2.31 13.394-5.982l33.76 19.491z" fill-rule="nonzero" fill="#4990E2"/></svg>