<svg width="128" height="128" viewBox="0 0 128 128" xmlns="http://www.w3.org/2000/svg"><title>twitter</title><path d="M124 28.878a49.225 49.225 0 0 1-14.14 3.876c5.083-3.047 8.986-7.871 10.825-13.62a49.304 49.304 0 0 1-15.634 5.974 24.588 24.588 0 0 0-17.97-7.775c-13.597 0-24.62 11.023-24.62 24.62 0 1.929.218 3.808.637 5.61-20.46-1.027-38.602-10.828-50.744-25.723A24.504 24.504 0 0 0 9.02 34.217c0 8.541 4.346 16.077 10.952 20.492a24.521 24.521 0 0 1-11.151-3.08c-.002.103-.002.206-.002.31 0 11.928 8.486 21.879 19.749 24.14a24.653 24.653 0 0 1-11.118.422c3.132 9.781 12.224 16.9 22.998 17.098a49.398 49.398 0 0 1-30.576 10.539c-1.987 0-3.947-.117-5.873-.344 10.895 6.985 23.836 11.06 37.74 11.06 45.283 0 70.046-37.514 70.046-70.047 0-1.067-.023-2.13-.07-3.185A50.038 50.038 0 0 0 124 28.878" fill="#2AA3EF" fill-rule="evenodd"/></svg>