<?xml version="1.0" encoding="UTF-8"?>
<svg width="256px" height="76px" viewBox="0 0 256 76" version="1.1" xmlns="http://www.w3.org/2000/svg" xmlns:xlink="http://www.w3.org/1999/xlink">
    <!-- Generator: Sketch 41 (35326) - http://www.bohemiancoding.com/sketch -->
    <title>white-logotype</title>
    <desc>Created with Sketch.</desc>
    <defs></defs>
    <g id="Page-1" stroke="none" stroke-width="1" fill="none" fill-rule="evenodd">
        <g id="white-logotype" fill="#FFFFFF">
            <path d="M31.903,57.717 L39.614,57.717 L39.614,23.941 L31.903,23.941 L31.903,57.717 Z M51.875,25.946 C53.321,24.249 55.362,23.401 57.998,23.401 C60.581,23.401 62.751,24.07 64.508,25.406 C66.265,26.692 67.143,29.699 67.143,34.428 L67.143,57.717 L59.432,57.717 L59.432,35.894 C59.432,33.529 59.148,32.142 58.584,31.729 C58.017,31.267 57.144,31.036 55.962,31.036 C54.83,31.036 53.957,31.267 53.34,31.729 C52.773,32.142 52.492,33.503 52.492,35.817 L52.492,57.717 L44.934,57.717 L44.934,23.941 L51.875,23.941 L51.875,25.946 L51.875,25.946 Z M86.267,56.869 C84.416,57.742 82.437,58.179 80.329,58.179 C78.17,58.179 76.486,57.229 75.278,55.326 C74.069,53.425 73.466,50.622 73.466,46.921 L73.466,30.11 L70.999,30.11 L70.999,23.941 L73.466,23.941 L73.466,15.15 L81.177,12.76 L81.177,23.941 L85.342,23.941 L85.342,30.11 L81.177,30.11 L81.177,44.762 C81.074,46.408 81.162,47.666 81.441,48.54 C81.721,49.415 82.114,49.955 82.62,50.159 C83.126,50.366 83.695,50.302 84.33,49.967 C84.962,49.633 85.608,49.107 86.267,48.386 L86.267,56.869 L86.267,56.869 Z M103.926,38.207 C103.874,34.866 103.565,32.836 103,32.115 C102.434,31.396 101.612,31.036 100.532,31.036 C99.401,31.036 98.528,31.396 97.91,32.115 C97.294,32.886 96.959,34.918 96.908,38.207 L103.926,38.207 Z M96.985,44.685 C97.139,47.102 97.499,48.644 98.065,49.311 C98.682,49.928 99.992,50.237 101.997,50.237 C104.053,50.237 106.341,49.878 108.861,49.157 L108.861,57.1 C106.289,57.717 103.282,58.025 99.839,58.025 C96.378,58.076 93.739,57.049 91.922,54.941 C90.105,52.833 89.197,48.052 89.197,40.598 C89.197,33.195 90.105,28.465 91.922,26.409 C93.687,24.404 96.635,23.401 100.764,23.401 C104.824,23.351 107.652,24.301 109.246,26.254 C110.788,28.209 111.56,31.448 111.56,35.971 L111.56,41.6 C111.56,42.988 111.533,44.017 111.482,44.685 L96.985,44.685 Z M115.801,13.222 L123.512,10.832 L123.512,57.717 L115.801,57.717 L115.801,13.222 L115.801,13.222 Z M128.755,57.717 L136.466,57.717 L136.466,23.941 L128.755,23.941 L128.755,57.717 L128.755,57.717 Z M128.292,17.309 C128.292,16.127 128.728,15.099 129.603,14.225 C130.477,13.351 131.504,12.914 132.687,12.914 C133.87,12.914 134.897,13.351 135.772,14.225 C136.646,15.099 137.083,16.127 137.083,17.309 C137.083,18.493 136.646,19.52 135.772,20.394 C134.897,21.268 133.87,21.705 132.687,21.705 C131.504,21.705 130.477,21.268 129.603,20.394 C128.728,19.52 128.292,18.493 128.292,17.309 L128.292,17.309 Z M152.235,30.727 C150.963,30.727 149.995,30.985 149.334,31.498 C148.723,32.064 148.418,33.761 148.418,36.587 C148.418,39.415 148.748,41.087 149.411,41.6 C150.071,42.063 151.039,42.294 152.311,42.294 C153.533,42.294 154.448,42.063 155.059,41.6 C155.669,41.087 155.975,39.415 155.975,36.587 C155.975,33.761 155.695,32.064 155.135,31.498 C154.627,30.985 153.659,30.727 152.235,30.727 L152.235,30.727 Z M150.324,59.336 C147.713,59.233 145.88,58.86 144.828,58.218 C143.773,57.576 143.246,56.124 143.246,53.861 L143.246,51.856 L147.951,49.543 C145.977,49.234 144.471,48.669 143.433,47.846 C141.615,46.51 140.707,42.731 140.707,36.51 C140.707,30.239 141.605,26.486 143.406,25.252 C145.153,24.018 148.083,23.401 152.197,23.401 C155.384,23.401 157.594,23.607 158.828,24.018 L158.828,22.553 C158.828,21.217 159.468,20.253 160.748,19.661 C162.027,19.071 163.47,18.774 165.074,18.774 L166.231,18.774 L166.231,23.941 L163.841,23.941 C163.215,23.941 162.68,24.07 162.237,24.327 C161.792,24.584 161.571,24.918 161.571,25.329 C162.98,26.666 163.687,30.419 163.687,36.587 C163.687,42.809 162.916,46.562 161.373,47.846 C159.881,49.08 157.774,49.749 155.05,49.851 L151.657,49.851 C150.782,49.851 150.115,49.826 149.652,49.774 L149.652,53.244 L154.279,53.244 C158.699,53.244 161.655,53.784 163.147,54.864 C164.586,55.892 165.306,58.59 165.306,62.96 C165.306,67.329 164.535,70.003 162.994,70.98 C161.504,71.956 158.035,72.445 152.588,72.445 C147.193,72.445 143.595,71.809 141.797,70.537 L141.797,63.192 C144.262,64.219 147.088,64.734 150.273,64.734 L153.203,64.734 C155.103,64.785 156.426,64.628 157.171,64.264 C157.915,63.899 158.289,63.169 158.289,62.073 C158.289,60.978 157.917,60.248 157.178,59.884 C156.438,59.518 155.506,59.336 154.384,59.336 L150.324,59.336 L150.324,59.336 Z M182.578,41.446 C181.408,41.035 180.239,40.933 179.071,41.137 C177.851,41.292 176.986,41.793 176.478,42.641 C175.969,43.49 175.715,44.711 175.715,46.304 C175.715,47.898 176.007,48.964 176.592,49.504 C177.177,50.044 178.079,50.314 179.3,50.314 C180.519,50.314 181.332,50.159 181.74,49.851 C182.146,49.543 182.425,48.952 182.578,48.077 L182.578,41.446 Z M182.655,35.971 C182.758,34.098 182.425,32.833 181.657,32.175 C180.837,31.467 179.402,31.113 177.354,31.113 C175.407,31.113 173.587,31.448 171.898,32.115 L171.898,24.327 C173.641,23.709 176.257,23.401 179.747,23.401 C183.183,23.401 185.8,24.224 187.595,25.869 C189.391,27.515 190.29,30.702 190.29,35.431 L190.29,57.717 L184.892,57.717 L183.35,55.43 C182.424,57.16 180.47,58.025 177.489,58.025 C174.609,58.076 172.296,57.435 170.549,56.097 C168.852,54.813 168.004,51.702 168.004,46.767 C168.004,41.883 168.852,38.696 170.549,37.205 C172.296,35.714 174.43,34.968 176.949,34.968 C179.519,34.918 181.421,35.251 182.655,35.971 L182.655,35.971 Z M208.025,56.869 C206.174,57.742 204.195,58.179 202.088,58.179 C199.928,58.179 198.244,57.229 197.036,55.326 C195.828,53.425 195.225,50.622 195.225,46.921 L195.225,30.11 L192.757,30.11 L192.757,23.941 L195.225,23.941 L195.225,15.15 L202.936,12.76 L202.936,23.941 L207.1,23.941 L207.1,30.11 L202.936,30.11 L202.936,44.762 C202.832,46.408 202.92,47.666 203.2,48.54 C203.479,49.415 203.872,49.955 204.378,50.159 C204.884,50.366 205.454,50.302 206.088,49.967 C206.72,49.633 207.366,49.107 208.025,48.386 L208.025,56.869 L208.025,56.869 Z M244.576,25.946 C245.552,24.249 247.507,23.401 250.437,23.401 L250.437,31.961 C249.87,31.498 249.28,31.19 248.664,31.036 C248.046,30.881 247.48,30.946 246.967,31.228 C246.452,31.511 246.028,32.026 245.695,32.771 C245.359,33.517 245.193,34.532 245.193,35.817 L245.193,57.717 L237.636,57.717 L237.636,23.941 L244.576,23.941 L244.576,25.946 L244.576,25.946 Z M30.468,26.128 C30.468,26.128 17.791,29.69 11.715,18.585 C11.715,18.585 7.838,10.937 5.429,9.994 C5.429,9.994 26.487,7.794 31.096,22.88 C31.096,22.88 21.353,11.251 13.81,12.509 C13.81,12.509 27.639,16.071 30.468,26.128 L30.468,26.128 Z M37.074,3.193 C37.074,3.193 26.702,11.994 33.197,21.842 C33.197,21.842 32.045,13.356 34.873,11.051 C34.873,11.051 33.931,18.908 35.083,20.689 C35.083,20.689 40.321,17.441 39.064,10.422 C39.064,10.422 37.178,7.07 37.074,3.193 L37.074,3.193 Z M25.648,29.062 C25.648,29.062 19.677,30.528 12.133,25.814 L25.648,29.062 Z M218.797,45.191 C218.673028,45.0899891 218.553579,44.983552 218.439,44.872 C218.304,44.735 218.183,44.582 218.048,44.446 C217.814097,44.2016703 217.602894,43.936579 217.417,43.654 C217.396,43.623 217.357,43.605 217.326,43.581 C217.285,43.492 217.245,43.403 217.202,43.315 C217.1,43.109 216.932,42.942 216.854,42.722 C216.828147,42.6476896 216.798099,42.574906 216.764,42.504 C216.602005,42.1596058 216.46401,41.804426 216.351,41.441 C216.231,41.079 216.166,40.706 216.083,40.337 C216.015,40.038 215.996,39.727 215.955,39.421 L215.942,39.324 C215.922,39.353 215.891,39.379 215.883,39.412 C215.861,39.494 215.849,39.578 215.834,39.662 C215.791,39.907 215.735,40.149 215.702,40.397 C215.679,40.572 215.649,40.751 215.641,40.924 C215.619,41.361 215.633,41.798 215.706,42.234 C215.762,42.564 215.817,42.892 215.917,43.212 C216.043,43.616 216.21,44.006 216.447,44.354 C216.667,44.676 216.925,44.971 217.239,45.217 C217.503,45.424 217.789,45.579 218.097,45.7 C218.377,45.81 218.668,45.855 218.97,45.841 C219.043024,45.8394316 219.114241,45.8179974 219.176,45.779 C219.293,45.702 219.294,45.588 219.184,45.5 C219.055,45.397 218.923,45.297 218.797,45.191 L218.797,45.191 Z M218.344,47.31 C218.343,47.313 218.35,47.318 218.353,47.322 L218.366,47.311 C218.362,47.307 218.359,47.3 218.355,47.3 C218.351,47.299 218.344,47.306 218.344,47.31 L218.344,47.31 Z M218.797,47.765 L218.81,47.755 L218.799,47.743 C218.798829,47.7503699 218.79816,47.75772 218.797,47.765 L218.797,47.765 Z M218.666,47.631 C218.67328,47.6321604 218.68063,47.6328286 218.688,47.633 L218.678,47.621 L218.666,47.631 L218.666,47.631 Z M218.475,47.443 L218.487,47.432 L218.477,47.42 L218.475,47.443 L218.475,47.443 Z" id="Shape"></path>
            <path d="M230.928,26.254 C229.353,24.325 226.468,23.377 222.283,23.404 C222.297,23.518 222.308,23.633 222.329,23.747 C222.381,24.03 222.444,24.311 222.511,24.59 C222.578,24.87 222.65,25.149 222.733,25.424 C222.798,25.637 222.879,25.845 222.961,26.052 C223.096,26.394 223.225,26.74 223.379,27.073 C223.547,27.438 223.741,27.791 223.926,28.147 C224.008,28.306 224.091,28.464 224.182,28.618 C224.324,28.856 224.469,29.092 224.609,29.33 C224.902,29.825 225.223,30.3 225.544,30.776 C225.847,31.224 226.137,31.681 226.457,32.116 C226.895,32.712 227.295,33.334 227.706,33.948 C227.948,34.309 228.159,34.692 228.373,35.071 C228.577,35.432 228.78,35.794 228.96,36.168 C229.13,36.523 229.273,36.892 229.421,37.258 C229.587,37.665 229.711,38.086 229.808,38.513 C229.865,38.761 229.943,39.007 229.951,39.267 C229.955,39.382 229.997,39.497 230.021,39.612 C230.02487,39.6314538 230.02721,39.6511808 230.028,39.671 C230.045,39.977 230.084,40.281 230.071,40.589 C230.061,40.79 230.074,40.992 230.067,41.194 C230.06,41.406 230.064,41.622 230.022,41.828 C229.958,42.142 229.922,42.46 229.836,42.771 C229.775,42.992 229.703,43.208 229.64,43.428 C229.577109,43.6429758 229.493379,43.8512975 229.39,44.05 C229.294,44.236 229.223,44.435 229.141,44.629 C228.993,44.86 228.846,45.092 228.695,45.323 C228.627454,45.4286348 228.555043,45.5310783 228.478,45.63 C228.383,45.749 228.278,45.861 228.177,45.976 C228.076,46.091 227.981,46.212 227.872,46.319 C227.676,46.51 227.482,46.705 227.269,46.877 C227.101,47.012 226.931,47.147 226.746,47.267 C226.503,47.425 226.252,47.573 226.005,47.726 C225.793,47.857 225.558,47.953 225.326,48.048 C225.112591,48.1321391 224.895352,48.2062205 224.675,48.27 C224.338954,48.3776303 223.997071,48.4661058 223.651,48.535 C223.51,48.56 223.361,48.54 223.217,48.579 C222.987,48.642 222.745,48.629 222.51,48.65 C222.242,48.674 221.964,48.705 221.693,48.626 C221.656,48.615 221.613,48.621 221.573,48.621 C221.381,48.623 221.195,48.573 221.007,48.55 C220.823,48.528 220.643,48.492 220.462,48.46 C220.385,48.446 220.305,48.44 220.231,48.416 C219.851,48.294 219.456,48.221 219.096,48.036 C218.885,47.928 218.655,47.857 218.448,47.744 C218.148,47.581 217.855,47.404 217.58,47.201 C217.458,47.111 217.332,47.024 217.214,46.928 C216.884,46.659 216.559,46.384 216.296,46.043 C216.115,45.807 215.919,45.581 215.73,45.35 C215.708991,45.3245893 215.689619,45.2978687 215.672,45.27 C215.559,45.084 215.438,44.902 215.336,44.711 C215.231,44.514 215.141,44.31 215.05,44.107 C214.89574,43.7660367 214.766076,43.4144723 214.662,43.055 C214.578,42.759 214.492,42.466 214.458,42.157 C214.436208,41.9476449 214.408865,41.7389047 214.376,41.531 C214.314,41.137 214.357,40.744 214.344,40.35 C214.335,40.092 214.395,39.838 214.414,39.583 C214.435,39.298 214.507,39.024 214.553,38.746 C214.606,38.432 214.709,38.126 214.805,37.82 C214.991,37.223 215.229,36.646 215.507,36.085 C215.695,35.706 215.887,35.332 216.107,34.971 C216.303,34.65 216.486,34.321 216.679,33.998 C216.74,33.897 216.816,33.805 216.881,33.705 C217.035,33.468 217.179,33.223 217.339,32.99 C217.597,32.614 217.864,32.246 218.126,31.873 C218.338,31.571 218.549,31.268 218.755,30.962 C219.054,30.519 219.353,30.076 219.642,29.627 C219.831,29.333 219.999,29.025 220.18,28.726 C220.471,28.244 220.716,27.738 220.96,27.231 C221.151,26.834 221.328,26.43 221.475,26.014 C221.544,25.816 221.618,25.62 221.679,25.419 C221.777,25.094 221.893,24.771 221.951,24.438 C221.993,24.192 222.066,23.953 222.089,23.703 C222.099,23.602 222.119,23.502 222.137,23.401 C218.229,23.401 215.401,24.404 213.654,26.409 C211.854,28.465 210.955,33.195 210.955,40.598 C210.955,48.052 211.854,52.833 213.654,54.941 C215.453,57.1 218.332,58.128 222.291,58.025 C226.506,58.025 229.385,56.998 230.928,54.941 C232.47,52.885 233.241,48.077 233.241,40.521 C233.241,32.963 232.47,28.209 230.928,26.254" id="Shape"></path>
            <path d="M222.242,23.101 C222.24,23.087 222.22,23.066 222.208,23.065 C222.195,23.065 222.17,23.085 222.17,23.097 C222.17,23.2 222.155,23.301 222.137,23.401 C222.188,23.4 222.233,23.404 222.283,23.404 L222.242,23.101" id="Shape"></path>
            <text id="TM" font-family="ArialMT, Arial" font-size="10" font-weight="normal">
                <tspan x="230.281" y="71">TM</tspan>
            </text>
        </g>
    </g>
</svg>